<svg xmlns="http://www.w3.org/2000/svg" viewBox="0 0 294 294"><defs><style>.cls-1{fill:#5e3bed;}.cls-2{fill:#edf2f4;}</style></defs><g id="Layer_2" data-name="Layer 2"><g id="Layer_1-2" data-name="Layer 1"><rect class="cls-1" width="294" height="294" rx="68.5"/><path class="cls-2" d="M244.74,104.42a54,54,0,0,0-50.37,34.52L171,199.42l-2.31,5.29-23.12-39A63.67,63.67,0,0,0,172,144.11Q182,129.82,182,111q0-18.24-8.71-32A60.48,60.48,0,0,0,149.07,57.4q-15.49-7.89-35.65-7.9H42.64V240.06h0a37.29,37.29,0,0,0,37.29-37.29V172.56h28.59l38.93,67.5h41.68l.21-.52,55.4-135.12ZM139.41,125.18A27.69,27.69,0,0,1,128.8,135a31.89,31.89,0,0,1-15.12,3.54H79.93v-55h31.85q13.89,0,22.73,7.62T143.36,111A26,26,0,0,1,139.41,125.18Z"/><circle class="cls-2" cx="231.89" cy="218.03" r="22.47"/></g></g></svg>