<?xml version="1.0" encoding="utf-8"?>
<!-- Generator: Adobe Illustrator 23.0.3, SVG Export Plug-In . SVG Version: 6.00 Build 0)  -->
<svg version="1.1" id="Layer_1" xmlns="http://www.w3.org/2000/svg" xmlns:xlink="http://www.w3.org/1999/xlink" x="0px" y="0px"
	 viewBox="0 0 1181 707" style="enable-background:new 0 0 1181 707;" xml:space="preserve">
<g>
	<path d="M527.95,34.32c34.88-2.36,70.02-3.66,104.86-0.03c1.9,0.29,3.94,0.26,5.69,1.17c-0.98,2.52-4.18,2.79-6.48,3.21
		c-12.7,1.27-25.49,1.29-38.23,1.84c-25.29,1.5-50.5,4.14-75.68,6.9c-27.52,3.25-55.01,6.87-82.3,11.7
		c-39.72,7.3-78.89,18.21-116.06,34.11c-35.14,15.19-68.91,34.89-96.26,61.96c-22.05,21.73-39.31,48.99-46.37,79.35
		c-6.7,28.15-5.04,58.51,6.46,85.21c12.83,30.45,36.63,55,63.47,73.66c35.86,24.83,77.09,40.77,118.99,52.12
		c47.24,12.64,95.92,19.26,144.67,22.34c94.41,5.57,189.22-2.1,282.35-17.85c38.6-6.58,76.95-14.6,114.99-23.91
		c29.86-7.64,60-14.09,89.91-21.53c23.33-5.64,46.61-11.47,69.82-17.57c2.71-0.72,5.52-1.03,8.32-0.65
		c-0.06,3.61-4.02,4.72-6.74,5.86c-54.98,18.99-110.65,36.02-166.97,50.62c-87.74,22.65-177.14,39.53-267.5,47.14
		c-52.18,4.41-104.66,5.62-156.95,2.57c-49.35-2.96-98.6-9.74-146.48-22.25c-43.86-11.54-86.81-27.85-125.5-51.75
		c-28-17.4-53.89-38.99-73.12-65.97c-16.98-23.78-28.33-52.44-27.92-81.96c-0.28-30.68,10.52-60.93,28.68-85.49
		c22.53-30.73,54.07-53.54,87.22-71.64c36.67-19.87,76.04-34.31,116.05-45.82C399.2,50.01,463.4,39.32,527.95,34.32z"/>
	<path d="M657.52,40.02c23.4,6.64,46.81,13.29,70.23,19.88c0.08,53.97-0.13,107.95,0.1,161.92c6.8-8.43,12.6-17.65,19.02-26.38
		c6.88-9.75,13.74-19.51,20.67-29.23c28.36,0.05,56.71,0,85.06,0.03c-20.36,23.67-40.71,47.36-61.06,71.04
		c25.01,43.32,49.81,86.77,74.84,130.08c-28.39-0.11-56.79,0.02-85.18-0.07c-13.36-23.85-26.78-47.67-40.18-71.5
		c-4.33,7.04-9.01,13.86-13.19,20.98c-0.19,16.85-0.03,33.71-0.07,50.56c-23.42-0.03-46.84,0-70.26-0.01
		C657.54,258.22,657.5,149.12,657.52,40.02z"/>
	<path d="M335.84,181.52c24.41-5.3,48.79-10.79,73.34-15.46c1.73-0.78,2.5,1.04,2.32,2.44c0.07,10.96,0.07,21.94,0.67,32.89
		c4.86-9.35,11.2-18.58,20.58-23.86c23.62-13.62,55.62-9.83,75.73,8.47c5.04,3.97,8.6,9.39,11.47,15.05
		c5.02-8.14,10.49-16.41,18.54-21.89c10.05-6.87,22.47-9.05,34.41-9.74c16.85-1.03,34.18,5,46.37,16.77
		c6.46,6.15,10.28,14.47,12.98,22.84c1.7,5.04,1.18,10.38,1.24,15.59c0.01,47.57-0.02,95.14,0.02,142.71
		c-27.73-0.02-55.46-0.02-83.19,0c0.03-47.58-0.01-95.16,0.02-142.74c0.05-3.2-0.51-6.47-2.18-9.23c-4.37-7.51-17-7.7-21.56-0.3
		c-1.78,2.82-2.38,6.22-2.31,9.51c0.04,47.58-0.01,95.17,0.03,142.75c-28.06,0-56.11-0.01-84.16,0.01c0.01-47.89,0-95.79,0-143.68
		c0.32-7.28-5.86-13.9-13.19-13.86c-6.73-0.99-14.54,3.5-14.82,10.79c-0.08,48.9-0.06,97.79-0.01,146.69
		c-25.71,0.13-51.42-0.01-77.12,0.07c-0.11-61.69-0.04-123.37-0.14-185.05C335.12,182.1,335.6,181.71,335.84,181.52z"/>
	<path d="M743.34,547.82c8.14-4.46,19.2-4.2,26.6,1.67c3.62,2.84,5.61,7.2,6.4,11.65c-2.27,0.01-4.54,0.01-6.79,0.02
		c-0.96-3.6-2.99-7.08-6.4-8.82c-6.4-3.34-15.26-2.18-19.95,3.53c-3.43,4.05-4.67,9.52-4.71,14.73c0.02,5.26,1,10.81,4.26,15.1
		c4.49,6.11,13.73,7.6,20.22,4c4.42-2.51,6.6-7.6,6.97-12.48c2.28-0.03,4.55-0.04,6.84-0.02c-0.75,6.74-3.77,13.75-9.9,17.22
		c-7.23,3.97-16.56,3.94-23.82,0.05c-7.42-4.11-10.88-12.79-11.3-20.91C731.06,563.87,734.5,552.9,743.34,547.82z"/>
	<g>
		<path d="M862.4,545.4c8.35-1.82,18,0.27,23.6,7.09c8.06,9.79,8.35,25.07,1.3,35.47c-8.14,12.04-28.03,12.59-37.1,1.38
			c-6.57-8.2-7.57-19.97-3.98-29.65C848.79,552.62,854.94,546.88,862.4,545.4z M863.27,551.17c-6.3,1.72-10.48,7.7-11.68,13.89
			c-1.47,7.22-0.48,15.46,4.42,21.24c6.35,7.57,19.87,7,25.43-1.23c5.48-8.17,5.49-19.78,0.03-27.96
			C877.59,551.31,869.79,549.27,863.27,551.17z"/>
	</g>
	<path d="M958.25,548.84c6.11-4.67,14.72-4.99,21.83-2.65c6.14,1.97,9.98,8.25,9.86,14.57c-2.11,0-4.2,0-6.29,0.01
		c-0.56-3.44-2.04-7.03-5.31-8.68c-4.27-2.13-9.59-2.1-13.94-0.27c-3.75,1.53-5.53,6.35-3.74,9.95c1.46,2.32,4.19,3.31,6.7,4.08
		c6.67,1.91,14.05,2.3,19.91,6.37c5.82,4.12,6.31,13.26,1.89,18.58c-3.46,4.12-8.92,5.92-14.13,6.43
		c-6.46,0.51-13.59-0.71-18.45-5.3c-3.46-3.17-4.8-7.91-4.95-12.47c2.11-0.01,4.23,0,6.37,0.01c-0.05,5.48,3.96,10.35,9.3,11.47
		c4.75,0.9,10.18,1.11,14.46-1.53c4.45-2.67,4.86-10.27,0.06-12.8c-7.62-4.25-17.32-3.07-24.48-8.35
		C951.22,563.57,952.35,553.26,958.25,548.84z"/>
	<path d="M187.2,545.92c13.41,0.01,26.82,0,40.24,0.01c-0.02,1.93-0.04,3.87-0.07,5.82c-5.55-0.03-11.09-0.02-16.64-0.01
		c0.02,14.83,0,29.66,0.01,44.49c-2.24-0.01-4.47-0.01-6.7,0.02c0.01-14.84,0-29.68,0.01-44.51c-5.61-0.01-11.22-0.01-16.82,0
		C187.21,549.79,187.2,547.85,187.2,545.92z"/>
	<path d="M234.6,545.92c2.26,0,4.53,0,6.8-0.01c-0.01,7.19,0.02,14.37-0.01,21.56c8.77-0.01,17.53-0.01,26.3,0
		c-0.02-7.18,0.01-14.36-0.02-21.53c2.27-0.02,4.55-0.02,6.83-0.02c-0.02,16.77-0.02,33.54,0,50.31c-2.28,0-4.55,0-6.82,0
		c0.02-7.64-0.01-15.28,0.01-22.92c-8.77-0.01-17.54-0.01-26.31,0c0.05,7.64,0.01,15.28,0.03,22.93c-2.28-0.01-4.55-0.01-6.81-0.01
		C234.6,579.46,234.6,562.69,234.6,545.92z"/>
	<path d="M287.03,545.92c11.57,0.01,23.14,0,34.71,0c-0.01,1.93-0.02,3.87-0.03,5.82c-9.32,0-18.64-0.03-27.95,0.01
		c0,5.23,0.01,10.46-0.01,15.69c8.69,0.04,17.38,0.01,26.07,0.02c0,1.94,0.01,3.9,0.02,5.85c-8.7-0.01-17.39-0.02-26.08,0.01
		c0.01,5.69,0,11.39,0,17.09c9.42,0.03,18.84,0,28.26,0.02c0,1.93-0.01,3.86,0,5.8c-11.67,0-23.33,0-34.99,0
		C287.05,579.46,287.05,562.69,287.03,545.92z"/>
	<path d="M332,545.92c3.02,0.01,6.04,0,9.07,0c5.29,13.99,10.5,28.01,15.77,42c5.31-13.99,10.56-28,15.83-41.99
		c3.06-0.01,6.11-0.01,9.17-0.01c-0.01,16.77,0,33.54,0,50.32c-2.12-0.01-4.23-0.01-6.34-0.01c-0.04-13.97,0.12-27.93-0.08-41.9
		c-5.08,14.01-10.46,27.9-15.63,41.87c-1.93,0.02-3.86,0.02-5.78,0.03c-5.22-13.92-10.51-27.81-15.63-41.77
		c-0.11,13.92-0.03,27.85-0.04,41.77c-2.11-0.01-4.22,0-6.32,0.01C331.93,579.47,332,562.69,332,545.92z"/>
	<path d="M394.64,545.92c11.57,0.01,23.14,0,34.72,0c-0.01,1.93-0.02,3.87-0.02,5.82c-9.32-0.02-18.64,0-27.95-0.02
		c-0.01,5.25,0.01,10.5-0.01,15.75c8.67-0.02,17.35,0,26.03-0.01c0,1.94,0,3.89,0.02,5.84c-8.69,0.01-17.37,0-26.06,0.01
		c0.03,5.7,0.02,11.41,0.01,17.12c9.39-0.03,18.77,0.02,28.16-0.02c0.04,1.93,0.06,3.87,0.07,5.82
		c-11.67-0.03-23.34,0.07-35.01-0.05C394.69,579.42,394.62,562.67,394.64,545.92z"/>
	<g>
		<path d="M439.32,545.92c9.02,0.42,18.28-1.07,27.1,1.31c7.3,1.94,12.63,8.56,13.71,15.93c1.17,8.04,0.79,16.89-3.56,24
			c-3.67,5.98-10.82,8.69-17.56,8.97c-6.56,0.23-13.13,0.04-19.69,0.1C439.33,579.46,439.33,562.69,439.32,545.92z M446.04,551.73
			c0.02,12.9,0.02,25.8,0,38.7c6.75-0.45,14.16,1.4,20.28-2.32c5.92-3.56,7.79-11.05,7.51-17.53c0.18-5.94-1.15-12.84-6.45-16.37
			C460.99,550.18,453.13,552.24,446.04,551.73z"/>
	</g>
	<g>
		<path d="M525.41,545.92c2.48,0,4.96,0,7.45,0.01c6.59,16.76,13.07,33.55,19.68,50.3c-2.53,0-5.06,0-7.58-0.03
			c-1.78-5.05-3.61-10.08-5.46-15.1c-7.02-0.01-14.04,0.02-21.05-0.01c-1.97,5-3.79,10.06-5.64,15.11
			c-2.36,0.03-4.72,0.03-7.08,0.02C512.32,579.47,518.83,562.68,525.41,545.92z M520.52,575.32c5.62-0.02,11.24-0.01,16.87-0.01
			c-2.87-7.73-5.52-15.53-8.4-23.26C526.18,559.81,523.41,567.59,520.52,575.32z"/>
	</g>
	<path d="M548.24,545.93c13.41-0.01,26.81,0,40.22-0.01c-0.02,1.93-0.03,3.87-0.03,5.82c-5.58-0.02-11.16-0.01-16.74-0.01
		c0,14.84-0.01,29.67,0,44.51c-2.28-0.01-4.56-0.02-6.83-0.03c-0.02-14.83-0.02-29.66-0.01-44.49c-5.51,0.03-11.02-0.02-16.53,0.04
		C548.28,549.81,548.25,547.86,548.24,545.93z"/>
	<path d="M592.08,545.91c13.39,0.03,26.79,0,40.19,0.02c-0.02,1.93-0.02,3.86-0.03,5.8c-5.58,0-11.15,0.01-16.73-0.01
		c0.01,14.84,0,29.68,0.01,44.51c-2.28,0-4.56,0-6.84,0c0.02-14.84,0-29.67,0.01-44.5c-5.52,0.01-11.05-0.02-16.57,0.02
		C592.1,549.79,592.09,547.85,592.08,545.91z"/>
	<g>
		<path d="M638.28,545.93c8.21,0,16.42-0.04,24.64,0.01c5.2,0.02,10.91,2.34,13.18,7.33c3.02,6.67,0.59,16.72-7.32,18.54
			c2.22,0.83,4.63,1.89,5.69,4.19c3.16,6.35,0.34,14.24,4.54,20.25c-2.59-0.03-5.17-0.02-7.75-0.03c-1.81-4.66-0.59-9.81-1.98-14.57
			c-0.49-3.27-2.76-6.58-6.32-6.74c-5.95-0.2-11.9,0-17.85-0.08c0.03,7.13,0,14.26,0.01,21.4c-2.28,0-4.56,0-6.83,0
			C638.28,579.47,638.3,562.7,638.28,545.93z M645.11,551.72c0.02,5.79,0.02,11.59,0,17.38c6.8-0.44,13.85,0.95,20.47-1.03
			c6.99-2.35,6.57-14.5-0.78-16.06C658.27,551.37,651.66,551.91,645.11,551.72z"/>
	</g>
	<g>
		<path d="M701.89,545.92c2.47,0,4.94,0,7.43,0c6.55,16.77,13.1,33.54,19.64,50.31c-2.5-0.01-4.99-0.01-7.48,0.02
			c-1.89-5.03-3.66-10.1-5.5-15.14c-7.05-0.01-14.1-0.02-21.15,0.01c-1.82,5.05-3.78,10.05-5.58,15.12
			c-2.36-0.01-4.71-0.01-7.05-0.01C688.78,579.46,695.26,562.66,701.89,545.92z M697.01,575.32c5.61-0.01,11.22-0.04,16.83,0.02
			c-2.79-7.75-5.64-15.48-8.27-23.29C702.57,559.75,699.87,567.57,697.01,575.32z"/>
	</g>
	<path d="M779.6,545.92c13.41,0,26.83,0.01,40.25,0c-0.02,1.93-0.03,3.87-0.04,5.82c-5.56-0.02-11.11,0-16.66-0.01
		c0.03,14.83,0,29.66,0.01,44.5c-2.27,0-4.54,0-6.8,0.01c0.02-14.84-0.01-29.68,0.02-44.52c-5.59,0.02-11.18,0-16.76,0.02
		C779.6,549.79,779.59,547.85,779.6,545.92z"/>
	<path d="M827.27,545.92c2.27,0,4.56,0,6.84,0.01c-0.01,16.77,0,33.53,0,50.3c-2.29,0-4.56,0-6.83,0
		C827.28,579.46,827.29,562.69,827.27,545.92z"/>
	<path d="M902.12,545.92c2.38-0.01,4.78-0.01,7.18,0.06c8.69,13.67,17.74,27.13,26.37,40.85c0.03-13.64,0.01-27.27,0.01-40.9
		c2.14-0.01,4.29-0.01,6.45,0.01c-0.02,16.76-0.02,33.52,0,50.28c-2.46,0.01-4.92,0.01-7.36,0.02c-8.8-13.41-17.5-26.88-26.26-40.32
		c0.02,13.43-0.01,26.87,0.01,40.31c-2.14-0.01-4.27,0-6.4,0.01C902.12,579.46,902.14,562.69,902.12,545.92z"/>
	<path d="M687.39,626.87c6.35-3.83,14.63-4.03,21.42-1.26c5.51,2.26,8.51,8.19,8.57,13.95c-2.22,0.01-4.42,0.01-6.62,0.02
		c-0.55-3.19-1.77-6.62-4.81-8.22c-4.33-2.29-9.92-2.26-14.24,0.02c-3.97,2.1-4.87,8.84-0.49,11.02c7.3,3.74,16.29,2.93,23.17,7.72
		c5.41,3.61,6.29,11.62,3.15,16.99c-3.06,5-9.09,7.14-14.65,7.69c-6.57,0.57-13.89-0.71-18.7-5.55c-3.14-3.11-4.31-7.61-4.38-11.9
		c2.19-0.03,4.37-0.03,6.57-0.02c0.25,3.5,1.53,7.14,4.65,9.1c5.12,3.22,12.06,3.39,17.48,0.82c4.51-2.17,5.44-9.56,0.87-12.16
		c-7.59-4.42-17.48-3.02-24.51-8.65C679.02,641.25,680.81,630.68,687.39,626.87z"/>
	<path d="M823.59,630.32c6.19-6.69,16.54-8.01,24.87-5.12c6.39,2.11,10.95,8.11,11.76,14.74c-2.34,0.01-4.67,0.01-6.99,0.01
		c-0.8-3.01-2.24-6.02-4.92-7.78c-6.72-4.55-17.23-2.77-21.4,4.43c-4.24,7.37-4.14,16.95-0.53,24.55
		c3.68,7.75,14.66,10.22,21.56,5.4c3.69-2.62,5.24-7.16,5.73-11.48c2.33,0,4.65,0,7,0.05c-0.64,6.3-3.28,12.86-8.79,16.41
		c-6.61,4.19-15.37,4.43-22.49,1.42c-6.87-2.94-11.02-10.06-12.09-17.22C815.86,646.95,817.3,637,823.59,630.32z"/>
	<g>
		<path d="M303.29,624.96c7.85,0.02,15.7-0.07,23.55,0.04c5.21,0.14,10.51,3.26,12.13,8.4c2.34,6.87,0.71,16.48-6.78,19.4
			c-7.03,2.39-14.63,0.84-21.9,1.28c-0.01,6.58,0,13.16-0.01,19.74c-2.31,0-4.62,0.01-6.93,0.02
			C303.2,657.55,303.32,641.25,303.29,624.96z M310.28,630.83c0.01,5.75,0,11.5,0.01,17.25c5.52-0.23,11.12,0.47,16.6-0.4
			c7.68-1.19,8.29-13.99,0.92-16.08C322.11,630.1,316.11,631.13,310.28,630.83z"/>
	</g>
	<path d="M349.06,624.85c2.31-0.03,4.63-0.03,6.95-0.01c0.06,6.95,0.01,13.91,0.03,20.86c8.33,0,16.66,0.01,24.99,0
		c0.02-6.95-0.02-13.9,0.03-20.85c2.31-0.03,4.63-0.03,6.95-0.01c0.05,16.32,0.02,32.65,0.01,48.97c-2.33,0.02-4.66,0.02-6.98,0.01
		c-0.01-7.37,0-14.74-0.01-22.11c-8.33-0.01-16.66-0.01-24.99,0c-0.01,7.36,0.01,14.73-0.02,22.1c-2.33,0.02-4.66,0.02-6.98,0.01
		C349.05,657.5,349.01,641.17,349.06,624.85z"/>
	<path d="M400.17,624.84c2.28-0.01,4.56-0.02,6.85-0.01c0.03,16.33,0.01,32.67,0.01,49c-2.29,0-4.58-0.01-6.87-0.01
		C400.17,657.49,400.15,641.16,400.17,624.84z"/>
	<path d="M419.17,624.84c2.27-0.02,4.55-0.01,6.84,0c0.06,14.33,0.01,28.66,0.03,42.99c8.53,0.01,17.06-0.03,25.6,0.02
		c0.01,1.97,0.02,3.95,0.03,5.93c-10.84,0.1-21.68,0.04-32.51,0.03C419.17,657.49,419.15,641.16,419.17,624.84z"/>
	<path d="M458.93,624.85c2.32-0.03,4.63-0.03,6.96,0c0.05,16.32,0.01,32.65,0.02,48.97c-2.34,0.01-4.67,0.01-7-0.03
		C458.92,657.48,458.88,641.16,458.93,624.85z"/>
	<g>
		<path d="M477.92,624.96c7.65,0,15.29-0.03,22.94,0.01c5.2-0.01,10.66,2.82,12.53,7.89c2.69,7.06,0.99,17.23-6.91,20.07
			c-6.96,2.17-14.39,0.75-21.56,1.14c-0.03,6.58,0,13.15-0.01,19.73c-2.34,0.03-4.67,0.03-7,0
			C477.91,657.52,477.9,641.24,477.92,624.96z M484.91,630.83c-0.01,5.75,0,11.5,0,17.25c5.66-0.25,11.42,0.56,17.02-0.51
			c7.5-1.6,7.64-14.32,0.17-16.08C496.48,630.19,490.63,631.1,484.91,630.83z"/>
	</g>
	<g>
		<path d="M523.66,624.97c7.74-0.01,15.47-0.05,23.2,0.01c4.99,0.11,10.23,2.77,12.1,7.62c2.85,7.09,1.22,17.55-6.86,20.35
			c-6.95,2.19-14.41,0.69-21.57,1.13c-0.01,6.58,0.02,13.16-0.01,19.75c-2.29-0.01-4.57,0-6.85,0
			C523.65,657.54,523.66,641.25,523.66,624.97z M530.54,630.83c-0.01,5.75-0.01,11.49-0.01,17.25c4.47-0.03,8.94,0.03,13.41-0.01
			c2.96-0.02,6.29-0.88,8.02-3.5c2.65-4.31,1.51-11.55-3.93-13.02C542.32,630.14,536.35,631.12,530.54,630.83z"/>
	</g>
	<path d="M569.8,624.83c2.27-0.01,4.55,0,6.84,0.02c0.05,16.32,0,32.64,0.02,48.97c-2.3,0-4.58,0.01-6.87,0.01
		C569.78,657.49,569.77,641.16,569.8,624.83z"/>
	<path d="M588.8,624.83c2.4,0,4.79-0.01,7.2,0c8.4,12.97,16.85,25.91,25.18,38.93c-0.04-12.97-0.02-25.95-0.01-38.92
		c2.19-0.02,4.39-0.01,6.59,0.01c0.05,16.32,0.01,32.65,0.02,48.97c-2.51,0.01-5.02,0.01-7.52,0c-8.28-12.75-16.55-25.5-24.84-38.24
		c-0.02,12.74,0,25.49-0.01,38.24c-2.22,0-4.42,0.01-6.62,0.01C588.78,657.5,588.77,641.16,588.8,624.83z"/>
	<path d="M639.42,624.97c11.28-0.02,22.57-0.03,33.86,0c0,1.94,0,3.89,0,5.85c-8.96,0.03-17.92-0.01-26.88,0.02
		c0.02,4.95,0,9.91,0.01,14.86c8.37,0.02,16.73-0.02,25.1,0.03c0.01,1.97,0.02,3.94,0.02,5.92c-8.37,0.12-16.75,0.02-25.12,0.05
		c0,5.38,0,10.75,0,16.13c9.04,0.01,18.07-0.03,27.11,0.02c0.01,1.99,0,3.98-0.04,5.98c-11.34,0-22.69,0.01-34.03-0.01
		C639.36,657.54,639.43,641.25,639.42,624.97z"/>
	<path d="M749.41,624.85c2.27-0.02,4.55-0.03,6.83-0.02c0.1,16.33,0.02,32.66,0.04,48.99c-2.3,0.01-4.59,0-6.87,0
		C749.4,657.5,749.41,641.17,749.41,624.85z"/>
	<path d="M768.43,624.83c2.4-0.01,4.8,0,7.22,0.01c8.38,12.93,16.72,25.89,25.16,38.79c-0.04-12.94-0.04-25.87-0.01-38.8
		c2.19-0.01,4.38,0,6.58,0.02c0.06,16.32,0.03,32.65,0.02,48.97c-2.51,0.01-5.01,0.01-7.5,0.01c-8.3-12.74-16.55-25.51-24.85-38.25
		c-0.04,12.75,0,25.5-0.02,38.25c-2.21,0-4.42-0.01-6.62-0.01C768.41,657.49,768.39,641.16,768.43,624.83z"/>
	<path d="M870.17,665.71c2.65-0.01,5.31-0.01,7.97,0c0.02,2.7,0.02,5.4,0.01,8.11c-2.66,0.01-5.33,0.01-7.98,0
		C870.15,671.11,870.15,668.41,870.17,665.71z"/>
</g>
</svg>
